<svg xmlns="http://www.w3.org/2000/svg" viewBox="0 0 2119.53 566.24"><defs><style>.a{fill:#333;}.b{fill:#194172;}.c{fill:#d8eaf8;}.d{fill:#174172;}.e{fill:#f0f7fc;}.f{fill:#143b60;}.g{fill:#fff;}</style></defs><title>movie-helper-logo-horizontal</title><path class="a" d="M801.09,354.67,776,407.6q-5.49,10.59-13.62,10.59T748.74,407l-25.49-52.35V438H696V298.4h26.86L762.27,379l39.21-80.58h26.86V438H801.09Z" transform="translate(-36.47 -19.7)"/><path class="a" d="M969.1,361.73v10.58q0,35.1-13.23,51t-42.45,15.88q-29.2,0-42.25-15.88t-13-51.57V361.53q0-32.53,13.23-48.43t42-15.88q28.71,0,42.25,16.08T969.1,361.73Zm-27.25,10v-7.25q0-18.83-4.7-30-5.49-12.93-23.53-12.94-18.24,0-23.72,12.94-4.51,10.59-4.51,30v7.25q0,25.3,7.06,34.12a21.73,21.73,0,0,0,8.13,6.37,29.06,29.06,0,0,0,12.94,2.65,29.37,29.37,0,0,0,12.84-2.55A22.87,22.87,0,0,0,934.6,406a26.3,26.3,0,0,0,4.51-9.8Q941.86,386.63,941.85,371.72Z" transform="translate(-36.47 -19.7)"/><path class="a" d="M1099.87,298.4,1056,430.15q-3.54,9-12.55,9-9.4,0-12.94-9L987.14,298.4h28.23l28,91,28-91Z" transform="translate(-36.47 -19.7)"/><path class="a" d="M1153.79,438h-27.25V298.4h27.25Z" transform="translate(-36.47 -19.7)"/><path class="a" d="M1288.08,438h-49.4q-23.54,0-33-8.13t-9.51-28.73V298.4h91.95v24.31h-64.69v32.74h45.29l-2,24.31h-43.32v19.41q0,8.24,3.72,11.37t13.53,3.14h47.44Z" transform="translate(-36.47 -19.7)"/><path class="a" d="M1502.55,438H1475.3V381.53h-51.17V438h-27.25V298.4h27.25v59h51.17v-59h27.25Z" transform="translate(-36.47 -19.7)"/><path class="a" d="M1634.89,438h-49.41q-23.52,0-33-8.13t-9.51-28.73V298.4h92v24.31h-64.7v32.74h45.29l-2,24.31h-43.33v19.41q0,8.24,3.73,11.37t13.52,3.14h47.45Z" transform="translate(-36.47 -19.7)"/><path class="a" d="M1757.42,438h-41.56q-23.53,0-34-9.12t-10.49-29.7V298.4h27.26V399.17q0,8.24,3.72,11.37t13.53,3.14h41.56Z" transform="translate(-36.47 -19.7)"/><path class="a" d="M1877.11,310.46q12.06,12,12.06,35.38t-12.06,35.39q-12.06,12.06-34,12.06h-26.86V438H1789V298.4h54.11Q1865,298.4,1877.11,310.46Zm-15.19,35.38q0-23.13-20.2-23.13h-25.48v46.07h25.48q9.81,0,15-5.29T1861.92,345.84Z" transform="translate(-36.47 -19.7)"/><path class="a" d="M2013.86,438h-49.4q-23.54,0-33-8.13t-9.51-28.73V298.4h91.95v24.31h-64.7v32.74h45.29l-2,24.31h-43.33v19.41q0,8.24,3.73,11.37t13.53,3.14h47.44Z" transform="translate(-36.47 -19.7)"/><path class="a" d="M2156,438h-31.57l-27.25-51.76h-19.6V438h-27.25V328.4q0-15.69,7.25-22.84t24.31-7.16H2105q20.78,0,33,12.65t12.26,32.05q0,14.11-7.36,24.41a38.09,38.09,0,0,1-18.13,14.21Zm-38.52-80.48a21,21,0,0,0,5.58-14.9q0-8.92-5.39-14.41t-14.41-5.49h-13.53q-12.15,0-12.15,12.35v28.43h25.68A18.61,18.61,0,0,0,2117.48,357.51Z" transform="translate(-36.47 -19.7)"/><path class="b" d="M204.79,347.74l-85.44-48.41a30.78,30.78,0,0,0-41.92,11.58l-37,65.2a30.81,30.81,0,0,0,11.63,42l85.43,48.4Z" transform="translate(-36.47 -19.7)"/><path class="b" d="M437.92,347.74l85.44-48.41a30.82,30.82,0,0,1,42,11.58l36.93,65.2a30.79,30.79,0,0,1-11.58,42l-85.44,48.4Z" transform="translate(-36.47 -19.7)"/><polygon class="c" points="264.32 163.78 294.83 163.78 286.77 100.27 272.39 100.27 264.32 163.78"/><path class="d" d="M331.3,186H300.79a2.48,2.48,0,0,1-2.48-2.81l8.07-63.51a2.49,2.49,0,0,1,2.48-2.18h14.38a2.49,2.49,0,0,1,2.48,2.18l8.06,63.51A2.5,2.5,0,0,1,331.3,186Zm-27.67-5h24.83L321,122.47h-10Z" transform="translate(-36.47 -19.7)"/><path class="b" d="M368.56,243.94V186.12c0-10-10.46-18.11-23.36-18.11H288.36c-12.88,0-23.34,8.1-23.34,18.11v57.82Z" transform="translate(-36.47 -19.7)"/><path class="c" d="M577.84,466.69c0,48.14-31.24,89.71-75.42,107.23a126.38,126.38,0,0,1-46.63,8.86H181.45a126.34,126.34,0,0,1-46.66-8.87c-44.17-17.52-75.41-59.09-75.41-107.22,0-63.88,82.23-257.54,259.22-257.54C497.85,209.15,577.84,402.81,577.84,466.69Z" transform="translate(-36.47 -19.7)"/><path class="d" d="M455.79,585.93H181.45a128.85,128.85,0,0,1-47.82-9.1A124.87,124.87,0,0,1,78,533.61a114.29,114.29,0,0,1-21.73-66.92c0-17.36,5.77-42.27,15.82-68.32a359.74,359.74,0,0,1,48.06-86.3C156.72,263.68,220.88,206,318.6,206c98.85,0,163,57.68,199.35,106.06a355.66,355.66,0,0,1,47.53,86.31c9.85,26,15.51,50.86,15.51,68.31a114.33,114.33,0,0,1-21.74,66.93,124.76,124.76,0,0,1-55.67,43.22A129,129,0,0,1,455.79,585.93ZM318.6,212.3c-95.13,0-157.72,56.32-193.48,103.56C94.78,356,62.52,422.45,62.52,466.69a108,108,0,0,0,20.56,63.25A118.48,118.48,0,0,0,136,571a122.51,122.51,0,0,0,45.5,8.66H455.79A122.7,122.7,0,0,0,501.26,571a118.45,118.45,0,0,0,52.88-41,108.12,108.12,0,0,0,20.55-63.26c0-33.29-21.65-97.47-61.77-150.83C477.4,268.61,414.86,212.3,318.6,212.3Z" transform="translate(-36.47 -19.7)"/><path class="e" d="M561.66,478.67c0,40.83-28.36,73.59-63.61,92.2a117.71,117.71,0,0,1-45,8.62H180.41c-16.5,0-27.85-5.58-41.08-11.83-35.25-18.61-63.77-48.16-63.77-89,0-59.89,77.09-241.45,243-241.45C486.66,237.22,561.66,418.78,561.66,478.67Z" transform="translate(-36.47 -19.7)"/><path class="d" d="M318.74,282.09c-138.92,0-203.56,143.8-203.56,185.21s43.06,75.34,95.77,75.34H426.27c52.7,0,95.82-33.89,95.82-75.34S459.44,282.09,318.74,282.09Z" transform="translate(-36.47 -19.7)"/><path class="f" d="M318.7,301.86c-128.38,0-188.11,132.89-188.11,171.16s39.79,69.62,88.5,69.62h199c48.71,0,88.56-31.32,88.56-69.62S448.73,301.86,318.7,301.86Z" transform="translate(-36.47 -19.7)"/><path class="g" d="M260.68,406.17a37.14,37.14,0,0,1-37.34,36.89c-20.65,0-37.39-16.55-37.39-36.89s16.74-36.89,37.39-36.89A37.12,37.12,0,0,1,260.68,406.17Z" transform="translate(-36.47 -19.7)"/><path class="g" d="M451.26,406.17c0,20.34-16.72,36.89-37.37,36.89s-37.39-16.55-37.39-36.89,16.77-36.89,37.39-36.89A37.13,37.13,0,0,1,451.26,406.17Z" transform="translate(-36.47 -19.7)"/><path class="d" d="M285.9,21.48,371.75,70a13.07,13.07,0,0,1,0,22.85L285.9,141.43c-9,5.07-20.2-1.27-20.2-11.43V32.9C265.7,22.75,276.92,16.41,285.9,21.48Z" transform="translate(-36.47 -19.7)"/><path class="g" d="M259,484H383c2.15,0-4,39-61,40C266,525,256.38,484,259,484Z" transform="translate(-36.47 -19.7)"/></svg>